<svg xmlns="http://www.w3.org/2000/svg" xmlns:xlink="http://www.w3.org/1999/xlink" width="85" height="85" viewBox="0 0 85 85">
  <defs>
    <filter id="Rect치ngulo_18090" x="0" y="0" width="85" height="85" filterUnits="userSpaceOnUse">
      <feOffset dy="3" input="SourceAlpha"/>
      <feGaussianBlur stdDeviation="3" result="blur"/>
      <feFlood flood-opacity="0.161"/>
      <feComposite operator="in" in2="blur"/>
      <feComposite in="SourceGraphic"/>
    </filter>
  </defs>
  <g id="azteca_deportes" transform="translate(-19 -13)">
    <g transform="matrix(1, 0, 0, 1, 19, 13)" filter="url(#Rect치ngulo_18090)">
      <rect id="Rect치ngulo_18090-2" data-name="Rect치ngulo 18090" width="67" height="67" rx="10" transform="translate(9 6)" fill="#fff"/>
    </g>
    <g id="Grupo_31970" data-name="Grupo 31970" transform="translate(-640.488 -7.732)">
      <g id="Grupo_1" data-name="Grupo 1" transform="translate(681.671 70.308)">
        <path id="Trazado_1" data-name="Trazado 1" d="M830.531,172.685a2.743,2.743,0,0,0,1.291.375c.7,0,1.027-.342,1.027-.795s-.276-.706-.983-.971c-.971-.353-1.424-.883-1.424-1.512a1.654,1.654,0,0,1,1.844-1.568,2.48,2.48,0,0,1,1.3.331l-.232.7a2.186,2.186,0,0,0-1.093-.309c-.574,0-.883.331-.883.729,0,.441.309.64,1,.916.917.342,1.4.806,1.4,1.6,0,.949-.74,1.612-1.987,1.612a3.043,3.043,0,0,1-1.5-.375l.232-.729Z" transform="translate(-793.188 -165.841)" fill="#626363" fill-rule="evenodd"/>
        <path id="Trazado_2" data-name="Trazado 2" d="M809.083,171.184a1.7,1.7,0,0,0,1.821,1.844,3.473,3.473,0,0,0,1.479-.276l.177.7a4.351,4.351,0,0,1-1.788.342,2.492,2.492,0,0,1-2.627-2.694,2.6,2.6,0,0,1,2.517-2.881,2.255,2.255,0,0,1,2.2,2.517,2.366,2.366,0,0,1-.033.453Zm2.837-.7h0a1.382,1.382,0,0,0-1.336-1.579,1.6,1.6,0,0,0-1.49,1.579Z" transform="translate(-776.585 -165.841)" fill="#626363" fill-rule="evenodd"/>
        <path id="Trazado_3" data-name="Trazado 3" d="M794.725,163.589v1.281h1.391v.74h-1.391v2.87c0,.662.188,1.038.729,1.038a1.813,1.813,0,0,0,.563-.066l.044.74a2.649,2.649,0,0,1-.861.132,1.384,1.384,0,0,1-1.049-.408,2.086,2.086,0,0,1-.375-1.4v-2.9h-.828v-.74h.828v-.983l.949-.3Z" transform="translate(-765.198 -162.375)" fill="#626363" fill-rule="evenodd"/>
        <path id="Trazado_4" data-name="Trazado 4" d="M779.78,170c0-.629-.011-1.17-.044-1.667h.85l.044,1.049h.033a1.616,1.616,0,0,1,1.49-1.17,1.98,1.98,0,0,1,.265.022v.916a2.774,2.774,0,0,0-.331-.022,1.361,1.361,0,0,0-1.3,1.237,2.99,2.99,0,0,0-.033.453v2.859h-.971V170Z" transform="translate(-755.297 -165.841)" fill="#626363" fill-rule="evenodd"/>
        <path id="Trazado_5" data-name="Trazado 5" d="M756.75,173.8a2.546,2.546,0,0,1-2.561-2.749,2.615,2.615,0,0,1,2.649-2.837,2.527,2.527,0,0,1,2.572,2.738,2.618,2.618,0,0,1-2.649,2.848Zm.044-.729h0c.927,0,1.623-.872,1.623-2.086,0-.905-.453-2.043-1.6-2.043s-1.634,1.06-1.634,2.076c0,1.17.662,2.053,1.6,2.053Z" transform="translate(-736.152 -165.841)" fill="#626363" fill-rule="evenodd"/>
        <path id="Trazado_6" data-name="Trazado 6" d="M730.537,170.08c0-.685-.011-1.237-.044-1.744h.872l.055.916h.022a2.061,2.061,0,0,1,1.888-1.038c1.3,0,2.274,1.093,2.274,2.716,0,1.921-1.181,2.87-2.429,2.87a1.86,1.86,0,0,1-1.645-.839h-.022v2.9h-.972V170.08Zm.972,1.424h0a1.574,1.574,0,0,0,.044.4A1.486,1.486,0,0,0,733,173.038c1.026,0,1.623-.839,1.623-2.065,0-1.071-.552-1.987-1.578-1.987a1.55,1.55,0,0,0-1.479,1.2,2.322,2.322,0,0,0-.055.386v.927Z" transform="translate(-718.395 -165.841)" fill="#626363" fill-rule="evenodd"/>
        <path id="Trazado_7" data-name="Trazado 7" d="M708,171.184a1.7,1.7,0,0,0,1.821,1.844,3.474,3.474,0,0,0,1.479-.276l.177.7a4.354,4.354,0,0,1-1.789.342,2.492,2.492,0,0,1-2.627-2.694,2.6,2.6,0,0,1,2.517-2.881,2.255,2.255,0,0,1,2.2,2.517,2.371,2.371,0,0,1-.033.453Zm2.837-.7h0a1.382,1.382,0,0,0-1.336-1.579,1.6,1.6,0,0,0-1.49,1.579Z" transform="translate(-700.835 -165.841)" fill="#626363" fill-rule="evenodd"/>
        <path id="Trazado_8" data-name="Trazado 8" d="M687.22,158.744V165.2c0,.475.011,1.016.044,1.38h-.872l-.044-.928h-.022a1.959,1.959,0,0,1-1.81,1.049,2.444,2.444,0,0,1-2.3-2.716c-.011-1.788,1.1-2.87,2.4-2.87a1.776,1.776,0,0,1,1.612.806h.022v-3.179Zm-.972,4.669h0a1.811,1.811,0,0,0-.044-.42,1.431,1.431,0,0,0-1.4-1.115c-1,0-1.6.883-1.6,2.054,0,1.093.541,1.987,1.579,1.987a1.47,1.47,0,0,0,1.424-1.17,1.545,1.545,0,0,0,.044-.408v-.928Z" transform="translate(-682.219 -158.744)" fill="#626363" fill-rule="evenodd"/>
      </g>
      <g id="Grupo_2" data-name="Grupo 2" transform="translate(681.488 61.551)">
        <path id="Trazado_9" data-name="Trazado 9" d="M683.9,123.8v1.578h1.228v1.263H683.9v1.993c0,.666.159.97.676.97a2.8,2.8,0,0,0,.507-.045l.011,1.3a3.358,3.358,0,0,1-1.115.147,1.786,1.786,0,0,1-1.285-.474,2.285,2.285,0,0,1-.473-1.634v-2.253h-.732v-1.263h.732v-1.194Z" transform="translate(-681.488 -123.804)" fill="#626363"/>
        <path id="Trazado_10" data-name="Trazado 10" d="M698.36,130.1l.744,2.559a12.853,12.853,0,0,1,.315,1.34h.034c.09-.45.18-.866.3-1.34l.709-2.559h1.8l-2.05,5.51h-1.714L696.5,130.1Z" transform="translate(-692.738 -128.523)" fill="#626363"/>
        <path id="Trazado_11" data-name="Trazado 11" d="M727.962,135.243l-.1-.552h-.034a1.986,1.986,0,0,1-1.577.675,1.689,1.689,0,0,1-1.781-1.689c0-1.432,1.285-2.12,3.235-2.108v-.078c0-.293-.159-.71-1-.71a3.1,3.1,0,0,0-1.52.417l-.316-1.1a4.544,4.544,0,0,1,2.14-.484,2.142,2.142,0,0,1,2.422,2.378V133.9a8.442,8.442,0,0,0,.08,1.34Zm-.2-2.6c-.9-.012-1.6.2-1.6.867a.614.614,0,0,0,.675.653.935.935,0,0,0,.889-.63,1.225,1.225,0,0,0,.034-.294Z" transform="translate(-713.697 -128.154)" fill="#626363"/>
        <path id="Trazado_12" data-name="Trazado 12" d="M746.547,134.632l1.736-2.175c.315-.372.564-.643.879-.981v-.023h-2.423V130.1h4.506v1.026l-1.656,2.084a13.318,13.318,0,0,1-.9,1.014v.022h2.648v1.363h-4.789Z" transform="translate(-730.242 -128.523)" fill="#626363"/>
        <path id="Trazado_13" data-name="Trazado 13" d="M768.473,123.8v1.578H769.7v1.263h-1.229v1.993c0,.666.158.97.677.97a2.793,2.793,0,0,0,.507-.045l.012,1.3a3.356,3.356,0,0,1-1.115.147,1.785,1.785,0,0,1-1.286-.474,2.284,2.284,0,0,1-.474-1.634v-2.253h-.731v-1.263h.731v-1.194Z" transform="translate(-744.867 -123.804)" fill="#626363"/>
        <path id="Trazado_14" data-name="Trazado 14" d="M783.341,133.034c.057.71.755,1.048,1.557,1.048a4.853,4.853,0,0,0,1.521-.225l.225,1.161a5.449,5.449,0,0,1-1.995.339,2.646,2.646,0,0,1-2.942-2.807,2.76,2.76,0,0,1,2.783-2.94c1.781,0,2.457,1.386,2.457,2.75a4.112,4.112,0,0,1-.057.675Zm2.017-1.171a.994.994,0,0,0-.968-1.116,1.124,1.124,0,0,0-1.06,1.116Z" transform="translate(-756.591 -128.154)" fill="#626363"/>
        <path id="Trazado_15" data-name="Trazado 15" d="M808.553,135.108a4.2,4.2,0,0,1-1.532.248,2.672,2.672,0,0,1-2.917-2.818,2.873,2.873,0,0,1,3.155-2.929,3.962,3.962,0,0,1,1.306.214l-.271,1.273a2.34,2.34,0,0,0-.958-.169,1.545,1.545,0,0,0,.034,3.088,2.649,2.649,0,0,0,.981-.168Z" transform="translate(-773.374 -128.154)" fill="#626363"/>
        <path id="Trazado_16" data-name="Trazado 16" d="M826.523,135.243l-.1-.552h-.033a1.986,1.986,0,0,1-1.578.675,1.688,1.688,0,0,1-1.78-1.689c0-1.432,1.284-2.12,3.234-2.108v-.078c0-.293-.158-.71-1-.71a3.1,3.1,0,0,0-1.522.417l-.315-1.1a4.545,4.545,0,0,1,2.141-.484,2.142,2.142,0,0,1,2.423,2.378V133.9a8.45,8.45,0,0,0,.079,1.34Zm-.2-2.6c-.9-.012-1.6.2-1.6.867a.615.615,0,0,0,.676.653.936.936,0,0,0,.891-.63,1.267,1.267,0,0,0,.034-.294Z" transform="translate(-787.558 -128.154)" fill="#626363"/>
      </g>
      <g id="Grupo_3" data-name="Grupo 3" transform="translate(685.432 40.732)">
        <g id="Grupo_32" data-name="Grupo 32">
          <g id="Grupo_31" data-name="Grupo 31">
            <g id="Grupo_30" data-name="Grupo 30">
              <g id="Grupo_29" data-name="Grupo 29">
                <g id="Grupo_28" data-name="Grupo 28">
                  <g id="Grupo_27" data-name="Grupo 27">
                    <g id="Grupo_26" data-name="Grupo 26">
                      <g id="Grupo_25" data-name="Grupo 25">
                        <path id="Trazado_17" data-name="Trazado 17" d="M784.568,69.762l-6.521-10.477-.068-.1a1.579,1.579,0,0,0-1.254-.7c-2.166,0-2.662,3.929-2.662,4.765a18.14,18.14,0,0,0,.67,4.549c1.264,4.035,3.757,5.023,5.848,5.023h.012A8.511,8.511,0,0,0,783.9,72.1a1.558,1.558,0,0,0,.9-1.043A1.515,1.515,0,0,0,784.568,69.762Z" transform="translate(-754.805 -54.039)" fill="#ffb711"/>
                        <path id="Trazado_18" data-name="Trazado 18" d="M735.738,40.741l-.022.005A16.566,16.566,0,0,0,722.94,53.475a11.569,11.569,0,0,0-.292,3.266,2.138,2.138,0,0,0,2.305,1.754,2.078,2.078,0,0,0,1.794-1.486,3.643,3.643,0,0,0,.166-.962v-.111c0-1.146.258-10.938,9.021-14.654a.287.287,0,0,0-.2-.539Z" transform="translate(-716.238 -40.732)" fill="#004691"/>
                        <path id="Trazado_19" data-name="Trazado 19" d="M752.4,41.838c-3.226,1.015-10,4.338-10,15.655a7.542,7.542,0,0,0,.2,2.32,2.082,2.082,0,0,0,2.872,1.119,2.117,2.117,0,0,0,1.194-1.954c0-.592-.278-1.622-.352-2.21a19.424,19.424,0,0,1-.148-2.392c0-3.55.974-9.051,6.44-12a.261.261,0,0,1,.025-.014.282.282,0,0,0,.148-.373A.294.294,0,0,0,752.4,41.838Z" transform="translate(-731.073 -41.547)" fill="#522db2"/>
                        <path id="Trazado_20" data-name="Trazado 20" d="M766.3,45.291c-.559.241-8.568,3.379-5.963,15.785a5.921,5.921,0,0,0,.635,1.75,2.115,2.115,0,0,0,2.662.822,2.148,2.148,0,0,0,1.227-1.817c.047-1.029-.932-2.363-1.3-3.5a14.662,14.662,0,0,1-.74-4.463,10.178,10.178,0,0,1,3.775-8.092.286.286,0,0,0-.294-.482Z" transform="translate(-744.131 -44.134)" fill="#ef172f"/>
                        <path id="Trazado_21" data-name="Trazado 21" d="M707.965,46.958c-.082-.039-1.483-.669-7.469-.669-.894,0-1.89.013-3,.046a.287.287,0,0,0-.263.2.354.354,0,0,0,.108.316,22.065,22.065,0,0,1,6.268,7.034.565.565,0,0,0,.573.318.578.578,0,0,0,.471-.359,16.113,16.113,0,0,1,3.752-5.15,1.023,1.023,0,0,0,.3-.762A1.06,1.06,0,0,0,707.965,46.958Z" transform="translate(-697.224 -44.896)" fill="#00a12f"/>
                      </g>
                    </g>
                  </g>
                </g>
              </g>
            </g>
          </g>
        </g>
      </g>
    </g>
  </g>
</svg>
