<svg xmlns="http://www.w3.org/2000/svg" xmlns:xlink="http://www.w3.org/1999/xlink" width="85" height="85" viewBox="0 0 85 85">
  <defs>
    <filter id="Rect치ngulo_18133" x="0" y="0" width="85" height="85" filterUnits="userSpaceOnUse">
      <feOffset dy="3" input="SourceAlpha"/>
      <feGaussianBlur stdDeviation="3" result="blur"/>
      <feFlood flood-opacity="0.161"/>
      <feComposite operator="in" in2="blur"/>
      <feComposite in="SourceGraphic"/>
    </filter>
  </defs>
  <g id="Grupo_18849" data-name="Grupo 18849" transform="translate(-1052 -1662)">
    <g transform="matrix(1, 0, 0, 1, 1052, 1662)" filter="url(#Rect치ngulo_18133)">
      <rect id="Rect치ngulo_18133-2" data-name="Rect치ngulo 18133" width="67" height="67" rx="10" transform="translate(9 6)" fill="#fff"/>
    </g>
    <g id="elgourmet" transform="translate(1079 1685)">
      <g id="Grupo_18307" data-name="Grupo 18307" transform="translate(0 0)">
        <g id="Grupo_18304" data-name="Grupo 18304">
          <path id="Trazado_40395" data-name="Trazado 40395" d="M19.757,0A11.794,11.794,0,1,0,31.551,11.794,11.794,11.794,0,0,0,19.757,0Zm7.62,11.794a7.624,7.624,0,1,1-1.944-5.082L23.25,8.667a4.688,4.688,0,1,0,1.033,4.358H19.757V10.606h7.62Z" transform="translate(-3.519)" fill="#ffb300"/>
          <path id="Trazado_40396" data-name="Trazado 40396" d="M3.409,48.633q.044-.012.087-.027c.577-.2.212-.856.15-1.409a1.339,1.339,0,0,1-.017-.185c0-.015,0-.025,0-.031l.014-.012c.138-.114.051-1.168.06-1.368q.069-1.6.14-3.209v-.012l0-.011a2.27,2.27,0,0,0-.068-.258.247.247,0,0,0-.244-.2l-.135.008-.018.057A14.078,14.078,0,0,0,3.1,45.515q-.036.737-.06,1.412c-.011.35-.017.558-.017.671,0,.044,0,.14,0,.148a2.976,2.976,0,0,0,.01.486c0-.007-.757.147-.825.153a1.984,1.984,0,0,1-.7-.067.609.609,0,0,1-.3-.208c-.013-.016-.159-.2-.162-.2l.009-.015a2.763,2.763,0,0,0,.825-.21c.5-.181.724-.343.724-.525a1.109,1.109,0,0,0-.324-.8,1.3,1.3,0,0,0-.8-.228,1.745,1.745,0,0,0-.978.266A1.02,1.02,0,0,0,0,47.305a1.8,1.8,0,0,0,.193.743,1.761,1.761,0,0,0,.343.5,1.339,1.339,0,0,0,.608.254,3.253,3.253,0,0,0,.98.078,7.612,7.612,0,0,0,.86-.142C3.127,48.7,3.268,48.67,3.409,48.633ZM.867,46.781a1.244,1.244,0,0,1,.53-.118A.606.606,0,0,1,1.909,47a2.683,2.683,0,0,1-.47.262,1.186,1.186,0,0,1-.611.14H.641a.1.1,0,0,1-.009-.049C.632,47.208.676,46.872.867,46.781Z" transform="translate(0 -18.521)" fill="#ffb300"/>
          <path id="Trazado_40397" data-name="Trazado 40397" d="M10.058,50.693a2.408,2.408,0,0,0-.218-.475c-.006-.141.517-.44-.118-.573a4.8,4.8,0,0,0-.909,0,1.562,1.562,0,0,0-1.419,1.037c-.332,1.475,1.852.316,2.12.42.037.018.038.035.057.06h0a1.588,1.588,0,0,1,.2,1.106l-.185.028c-.411.063-1.175.18-1.285.21a5.426,5.426,0,0,0-1.271.487,1.571,1.571,0,0,0-.853,1.025,1.21,1.21,0,0,0,.333,1.027,1.852,1.852,0,0,0,1.44.687h0a2.232,2.232,0,0,0,1.209-.378A3.013,3.013,0,0,0,10.336,52.8l.005-.08A4.852,4.852,0,0,0,10.058,50.693Zm-.91-.028c-.535.278-.721.2-.755.2a.566.566,0,0,1-.419-.163c.2-.518.82-.651,1.646-.476.027.006,0,.039,0,.039C9.607,50.275,9.578,50.443,9.148,50.665Zm.654,2.2,0,.045a2.684,2.684,0,0,1-.033.285,3.509,3.509,0,0,1-.161.608A1.989,1.989,0,0,1,8.55,55.112a1.649,1.649,0,0,1-.6.047,1.9,1.9,0,0,1-.547-.122,1.014,1.014,0,0,1-.672-.626.6.6,0,0,1,.074-.493c.256-.413,1-.751,2.213-1l.025-.005a4.153,4.153,0,0,1,.463-.074.191.191,0,0,0,.122-.087l.022-.026.025-.028a.477.477,0,0,1,.054-.056.081.081,0,0,1,.046-.018c.009,0,.017,0,.021.02A.759.759,0,0,1,9.8,52.868Z" transform="translate(-2.721 -21.926)" fill="#ffb300"/>
          <path id="Trazado_40398" data-name="Trazado 40398" d="M26.066,49.387c-.432-.055-.949,1.727-1.2,2.027-.289.345-.435.5-.9.482-.16-.006-.652-.029-.652-1.165,0-.339.205-.78-.17-.942-.541-.232-.473.77-.451,1.081.04.546.487,1.568.849,1.706a1.082,1.082,0,0,0,.95.078,2.053,2.053,0,0,0,.606-.333c.165-.132,1.415-2.663,1.117-2.888A.289.289,0,0,0,26.066,49.387Z" transform="translate(-10.02 -21.823)" fill="#ffb300"/>
          <path id="Trazado_40399" data-name="Trazado 40399" d="M31.031,50.022a1.924,1.924,0,0,1,.289-.079,2.842,2.842,0,0,0,.316-.012.9.9,0,0,1,.242-.052c.2.006.387.134.589.088a.354.354,0,0,0,.228-.126c.043-.036-.013-.275-.013-.275-.142-.248-.374-.321-1.136-.324a2.512,2.512,0,0,0-1.51.329,1.034,1.034,0,0,0-.309.421,7.79,7.79,0,0,0-.354,1.618c0,.046,0,.136-.011.265-.017.187-.02.238-.02.262,0,.1.055.37.152.423s.412.015.417-.071a4.846,4.846,0,0,0-.03-.661c0-.033,0-.066,0-.1a2.832,2.832,0,0,1,.041-.446c.066-.434.271-1.02.722-1.182a2.782,2.782,0,0,1,.347-.07Z" transform="translate(-12.966 -21.759)" fill="#ffb300"/>
          <path id="Trazado_40400" data-name="Trazado 40400" d="M38.1,49.949a2.551,2.551,0,0,0-.952.367,2.347,2.347,0,0,0-.282.248c-.772.568-1.053.756-1.144.806-.029.02-.056.021-.055-.016s.006-.108.012-.181c0-.119.007-.2.007-.257,0-.253,0-1.022-.407-1.022-.225,0-.524.209-.913.638-.487.542-1.333,1.459-1.389,1.51-.453.353-.491.47-.491.553a.478.478,0,0,0,.117.316.371.371,0,0,0,.2.034c.063,0,.188-.138.235-.181a3.674,3.674,0,0,0,.281-.3c.19-.218.381-.432.582-.637.294-.3.579-.608.879-.9a1.951,1.951,0,0,1,.239-.212c.035-.016.051.024.051.024a.839.839,0,0,1,.064.35c0,.016,0,.081-.031.353s-.032.347-.032.371c0,.229.314.417.5.417h.022l1.043-.79a5.372,5.372,0,0,1,1.147-.77c.061-.02.072.016.072.016a1.008,1.008,0,0,1,.037.308c0,.026,0,.115-.025.4-.021.345-.021.391-.021.406a1.149,1.149,0,0,0,.284.851.077.077,0,0,0,.1,0,.257.257,0,0,1,.152-.092c.06-.013.072-.092.072-.092,0-.055,0-.239.025-.807.017-.474.025-.732.025-.814C38.507,50.248,38.369,49.949,38.1,49.949Z" transform="translate(-14.354 -22.047)" fill="#ffb300"/>
          <path id="Trazado_40401" data-name="Trazado 40401" d="M47.989,52.049l-.017-.013-.021,0c-.226-.037-.344-.057-.406-.068v-.017l-1.007,0a3.1,3.1,0,0,1-.467-.013,2.918,2.918,0,0,1-.436-.105c-.02-.007-.334-.126-.331-.131s-.22-.195-.212-.214a4.323,4.323,0,0,0,1.19-.325c.561-.228.822-.436.822-.655a.741.741,0,0,0-.3-.683,1.379,1.379,0,0,0-.921-.294,1.842,1.842,0,0,0-1.123.343,1.344,1.344,0,0,0-.556,1.153,1.37,1.37,0,0,0,.3,1.029,1.862,1.862,0,0,0,.771.352,4.123,4.123,0,0,0,1.12.176h1.415a.539.539,0,0,0,.455-.242L48.3,52.3l-.023-.047C48.223,52.145,48.1,52.132,47.989,52.049Zm-2.784-1.731a1.182,1.182,0,0,1,1.281.092c-.079.049-.316.147-.658.3a2.687,2.687,0,0,1-.7.258h-.22a.163.163,0,0,1-.02-.089A.627.627,0,0,1,45.206,50.318Z" transform="translate(-19.532 -21.887)" fill="#ffb300"/>
          <path id="Trazado_40402" data-name="Trazado 40402" d="M52.41,44.9c.088-1.167.133-2.364.29-3.526a1.566,1.566,0,0,0-.082-1.134c-.126-.186-.425.442-.454.506a3.283,3.283,0,0,0-.237.971c-.095.748-.037,1.507-.105,2.258a9.276,9.276,0,0,1-.079,1c-.056.071-.051.081-.924.227-.649.108-.952.277-.953.533,0,.281.412.443.638.455.092.011.18-.254.314-.282l.252-.035a1.393,1.393,0,0,1,.248-.03c.309-.037.281-.056.311-.011a.326.326,0,0,1,.01.133c0,.105-.015.372-.041.685-.03.328-.045.7-.045.814a3.9,3.9,0,0,0,.16,1.171c.017.055.15.075.2.1a.662.662,0,0,0,.1.042c.1.031.137-.1.167-.174a1.265,1.265,0,0,0,.089-.332,1.655,1.655,0,0,0,.013-.217c0-.03-.006-.138-.018-.325s-.017-.286-.017-.318c0-.156.007-.473.02-.617.037-.41.069-.845.072-.983.01-.084.046-.084.14-.122.276-.112,2.039-.315,1.386-.809-.142-.108-.476-.023-.637-.022C53.168,44.851,52.411,44.892,52.41,44.9Z" transform="translate(-22.035 -17.766)" fill="#ffb300"/>
          <g id="Grupo_18303" data-name="Grupo 18303" transform="translate(7.863 27.454)">
            <path id="Trazado_40403" data-name="Trazado 40403" d="M16.105,49.191c-1.884.234-2.224.968-1.918,1.656.2.894.2,1.372,1.507,1.687,2.141-.167,2.819-.644,2.6-1.728C18.909,49.923,17.058,49.375,16.105,49.191Zm.361,2.5a.832.832,0,1,1,.865-.832A.848.848,0,0,1,16.466,51.694Z" transform="translate(-14.088 -49.191)" fill="#ffb300"/>
          </g>
        </g>
        <g id="Grupo_18306" data-name="Grupo 18306" transform="translate(8.113 31.633)">
          <g id="Grupo_18305" data-name="Grupo 18305">
            <path id="Trazado_40404" data-name="Trazado 40404" d="M14.772,57.583h-.235v-.21h.241v-.389h.263v.389h.334v.21H15.04v.664c0,.289.193.325.3.325.039,0,.064,0,.064,0V58.8a.743.743,0,0,1-.1.006.484.484,0,0,1-.534-.53Z" transform="translate(-14.537 -56.813)" fill="#97999b"/>
            <path id="Trazado_40405" data-name="Trazado 40405" d="M16.465,57.891h-.234v-.21h.5v.852c0,.2.039.353.262.353a.505.505,0,0,0,.453-.551v-.443h-.235v-.21h.5V58.83a.056.056,0,0,0,.061.061h.147V59.1h-.29c-.122,0-.177-.056-.177-.157V58.88a.611.611,0,0,1,.006-.084h-.006a.573.573,0,0,1-.534.335c-.3,0-.459-.167-.459-.543Z" transform="translate(-15.286 -57.121)" fill="#97999b"/>
            <path id="Trazado_40406" data-name="Trazado 40406" d="M21.2,57.621c.208,0,.548.078.548.322v.174h-.238v-.1c0-.109-.177-.162-.3-.162a.465.465,0,0,0-.475.5.479.479,0,0,0,.492.51.705.705,0,0,0,.448-.182l.1.2a.843.843,0,0,1-.561.218.742.742,0,1,1-.014-1.484Z" transform="translate(-17.156 -57.095)" fill="#97999b"/>
            <path id="Trazado_40407" data-name="Trazado 40407" d="M23.784,58.2h.088v-.053a.268.268,0,0,0-.3-.3.736.736,0,0,0-.4.138l-.108-.194a.89.89,0,0,1,.531-.168.487.487,0,0,1,.544.546V58.8a.055.055,0,0,0,.061.062h.141v.21h-.279c-.125,0-.174-.062-.174-.154V58.9a.357.357,0,0,1,.011-.093h-.006a.508.508,0,0,1-.461.3.427.427,0,0,1-.464-.428C22.969,58.232,23.552,58.2,23.784,58.2Zm-.294.694a.435.435,0,0,0,.385-.459v-.059h-.069c-.127,0-.566.006-.566.277A.237.237,0,0,0,23.491,58.9Z" transform="translate(-18.263 -57.095)" fill="#97999b"/>
            <path id="Trazado_40408" data-name="Trazado 40408" d="M25.681,58.862H25.9v-.935a.054.054,0,0,0-.061-.061h-.171v-.21h.315c.121,0,.176.053.176.157v.073a.428.428,0,0,1-.008.081h.005a.589.589,0,0,1,.545-.344c.32,0,.464.182.464.543v.7h.221v.21H26.9v-.846c0-.2-.039-.356-.262-.356a.5.5,0,0,0-.467.543v.448h.221v.21h-.707Z" transform="translate(-19.455 -57.095)" fill="#97999b"/>
            <path id="Trazado_40409" data-name="Trazado 40409" d="M29.645,58.2h.089v-.053a.268.268,0,0,0-.3-.3.736.736,0,0,0-.4.138l-.108-.194a.89.89,0,0,1,.531-.168.487.487,0,0,1,.544.546V58.8a.055.055,0,0,0,.061.062H30.2v.21h-.28c-.124,0-.174-.062-.174-.154V58.9a.357.357,0,0,1,.011-.093h-.005a.509.509,0,0,1-.462.3.428.428,0,0,1-.464-.428C28.83,58.232,29.413,58.2,29.645,58.2Zm-.293.694a.435.435,0,0,0,.385-.459v-.059h-.069c-.127,0-.566.006-.566.277A.237.237,0,0,0,29.352,58.9Z" transform="translate(-20.853 -57.095)" fill="#97999b"/>
            <path id="Trazado_40410" data-name="Trazado 40410" d="M31.424,56.888h-.232v-.21h.5v1.557c0,.121.028.2.15.2.044,0,.074,0,.074,0l0,.224s-.055.006-.119.006c-.2,0-.37-.081-.37-.412Z" transform="translate(-21.897 -56.678)" fill="#97999b"/>
            <path id="Trazado_40411" data-name="Trazado 40411" d="M34.323,57.2a.472.472,0,0,1,.431.238h.006a.648.648,0,0,1-.008-.107v-.448H34.52v-.21h.5v1.705a.055.055,0,0,0,.061.062h.141v.21h-.279c-.124,0-.174-.062-.174-.154v-.02a.309.309,0,0,1,.008-.076h-.005a.5.5,0,0,1-.473.282c-.376,0-.611-.3-.611-.742A.656.656,0,0,1,34.323,57.2Zm.033,1.249c.207,0,.4-.151.4-.5,0-.261-.13-.507-.4-.507-.224,0-.4.181-.4.5S34.124,58.453,34.357,58.453Z" transform="translate(-23 -56.678)" fill="#97999b"/>
            <path id="Trazado_40412" data-name="Trazado 40412" d="M37.194,57.621a.6.6,0,0,1,.606.664c0,.036-.008.1-.008.1H36.768a.474.474,0,0,0,.483.482.676.676,0,0,0,.417-.16l.111.2a.85.85,0,0,1-.544.2.716.716,0,0,1-.741-.742A.69.69,0,0,1,37.194,57.621Zm.329.594a.344.344,0,0,0-.335-.378.414.414,0,0,0-.409.378Z" transform="translate(-24.24 -57.095)" fill="#97999b"/>
            <path id="Trazado_40413" data-name="Trazado 40413" d="M40.82,57.621c.208,0,.548.078.548.322v.174h-.238v-.1c0-.109-.177-.162-.3-.162a.465.465,0,0,0-.476.5.479.479,0,0,0,.492.51.707.707,0,0,0,.448-.182l.1.2a.845.845,0,0,1-.561.218.742.742,0,1,1-.014-1.484Z" transform="translate(-25.824 -57.095)" fill="#97999b"/>
            <path id="Trazado_40414" data-name="Trazado 40414" d="M43.326,57.621a.742.742,0,1,1-.755.74A.734.734,0,0,1,43.326,57.621Zm0,1.249a.507.507,0,0,0,0-1.014.507.507,0,0,0,0,1.014Z" transform="translate(-26.925 -57.095)" fill="#97999b"/>
            <path id="Trazado_40415" data-name="Trazado 40415" d="M46.277,57.621c.207,0,.547.078.547.322v.174h-.238v-.1c0-.109-.177-.162-.3-.162a.465.465,0,0,0-.475.5.479.479,0,0,0,.492.51.705.705,0,0,0,.448-.182l.1.2a.843.843,0,0,1-.561.218.742.742,0,1,1-.013-1.484Z" transform="translate(-28.235 -57.095)" fill="#97999b"/>
            <path id="Trazado_40416" data-name="Trazado 40416" d="M48.1,58.445h.218v-1H48.09v-.21h.5v1.207h.221v.21H48.1Zm.213-1.767H48.6v.277h-.282Z" transform="translate(-29.364 -56.678)" fill="#97999b"/>
            <path id="Trazado_40417" data-name="Trazado 40417" d="M49.57,58.862h.218v-.935a.054.054,0,0,0-.061-.061h-.171v-.21h.315c.122,0,.177.053.177.157v.073a.4.4,0,0,1-.008.081h.006a.588.588,0,0,1,.545-.344c.32,0,.464.182.464.543v.7h.222v.21h-.489v-.846c0-.2-.039-.356-.262-.356a.5.5,0,0,0-.467.543v.448h.221v.21H49.57Z" transform="translate(-30.011 -57.095)" fill="#97999b"/>
            <path id="Trazado_40418" data-name="Trazado 40418" d="M53.534,58.2h.088v-.053a.267.267,0,0,0-.3-.3.736.736,0,0,0-.4.138l-.108-.194a.89.89,0,0,1,.53-.168.487.487,0,0,1,.545.546V58.8a.055.055,0,0,0,.061.062h.141v.21h-.279c-.124,0-.174-.062-.174-.154V58.9a.34.34,0,0,1,.011-.093h-.006a.509.509,0,0,1-.462.3.427.427,0,0,1-.464-.428C52.719,58.232,53.3,58.2,53.534,58.2Zm-.293.694a.434.434,0,0,0,.384-.459v-.059h-.069c-.127,0-.566.006-.566.277A.237.237,0,0,0,53.241,58.9Z" transform="translate(-31.409 -57.095)" fill="#97999b"/>
          </g>
        </g>
      </g>
    </g>
  </g>
</svg>
